<?xml version="1.0" encoding="UTF-8"?>
<svg width="512px" height="512px" viewBox="0 0 512 512" version="1.1" xmlns="http://www.w3.org/2000/svg" xmlns:xlink="http://www.w3.org/1999/xlink">
    <title>Artboard</title>
    <g id="Artboard" stroke="none" stroke-width="1" fill="none" fill-rule="evenodd">
        <rect fill="#191919" x="0" y="0" width="512" height="512"></rect>
        <g id="R" transform="translate(94.5588, 110.0723)" fill="#FFFFFF" fill-rule="nonzero">
            <path d="M0,295.927734 L0,0 L193.15155,0 C222.255554,0 246.551437,3.87458801 266.0392,11.623764 C285.526962,19.3729401 300.1548,30.6356812 309.922714,45.4119873 C319.690628,60.1882935 324.574585,78.1646729 324.574585,99.3411255 L324.574585,99.7512817 C324.574585,120.656433 319.358444,138.634415 308.926163,153.685226 C298.493881,168.736038 283.51944,179.703979 264.002838,186.58905 L336.863251,295.927734 L221.80481,295.927734 L164.020844,203.578491 C163.298798,203.578491 162.552185,203.578491 161.781006,203.578491 C161.009827,203.578491 160.238647,203.578491 159.467468,203.578491 L102.833862,203.578491 L102.833862,295.927734 L0,295.927734 Z M102.833862,138.059235 L182.971344,138.059235 C194.991913,138.059235 204.447403,135.037537 211.337814,128.994141 C218.228226,122.950745 221.673431,114.703827 221.673431,104.253387 L221.673431,103.843231 C221.673431,93.4803772 218.181763,85.2649689 211.198425,79.1970062 C204.215088,73.1290436 194.762268,70.0950623 182.839966,70.0950623 L102.833862,70.0950623 L102.833862,138.059235 Z" id="Shape"></path>
        </g>
    </g>
</svg>